<svg height="512pt" viewBox="0 0 512 512" width="512pt" xmlns="http://www.w3.org/2000/svg"><path d="m195.65625 403.160156-135.65625-135.65625v-136.503906c0-16.570312-13.429688-30-30-30s-30 13.429688-30 30v207.363281l75 118v55.636719h166v-30zm0 0" fill="#ffbea4"/><path d="m241 406.371094c0-20.082032-7.785156-38.925782-21.925781-53.066406l-25.617188-25.617188-82.253906-82.125c-11.71875-11.714844-30.710937-11.714844-42.425781 0s-11.71875 30.710938 0 42.425781l82.222656 82.226563v21.785156c0 49.707031 40.292969 90 90 90zm0 0" fill="#ffd4c4"/><path d="m316.34375 403.160156 135.65625-135.65625v-136.503906c0-16.570312 13.429688-30 30-30s30 13.429688 30 30v207.363281l-75 118v55.636719h-166v-30zm0 0" fill="#ffa785"/><path d="m271 406.371094c0-20.082032 7.785156-38.925782 21.925781-53.066406l25.617188-25.617188 82.253906-82.125c11.71875-11.714844 30.710937-11.714844 42.425781 0 11.71875 11.714844 11.71875 30.710938 0 42.425781l-82.222656 82.226563v21.785156c0 49.707031-40.292969 90-90 90zm0 0" fill="#ffbea4"/><path d="m316 76v-76h-60l-100 136 100 136h60v-76h76v-120zm0 0" fill="#e00016"/><path d="m196 0v76h-76v120h76v76h60v-272zm0 0" fill="#ff4547"/></svg>